<svg version="1.1" id="Layer_1" xmlns="http://www.w3.org/2000/svg" xmlns:xlink="http://www.w3.org/1999/xlink" x="0px" y="0px"
	 width="100%" viewBox="0 0 2648 1738" enable-background="new 0 0 2648 1738" xml:space="preserve">
<path fill="#0D0D0D" opacity="1.000000" stroke="none" 
	d="
M2642.000000,1740.000000 
	C1762.163818,1740.000000 882.327637,1740.000000 2.000000,1740.000000 
	C2.000000,1161.938232 2.000000,583.876404 2.929729,5.037292 
	C8.525309,4.281840 13.191159,4.322701 17.857010,4.322716 
	C885.048706,4.325516 1752.240479,4.325407 2619.432129,4.325579 
	C2624.098145,4.325580 2628.765137,4.261810 2633.429443,4.355649 
	C2636.002441,4.407415 2638.570312,4.725698 2642.017334,4.991427 
	C2642.017334,8.770237 2642.017578,12.025970 2642.017334,15.281705 
	C2642.011719,590.187805 2642.005859,1165.093872 2642.000000,1740.000000 
M1132.393433,1022.999817 
	C1132.394287,1044.331421 1131.690186,1065.697021 1132.715820,1086.979248 
	C1133.176392,1096.535156 1128.896973,1101.043213 1121.643799,1104.476196 
	C1119.365967,1105.554321 1116.573242,1105.812012 1113.993164,1105.926514 
	C1109.073242,1106.144653 1104.136719,1105.989746 1098.793701,1105.989746 
	C1098.793701,1109.822388 1098.793701,1112.680786 1098.793701,1115.880859 
	C1140.621338,1115.880859 1182.156128,1115.880859 1223.756714,1115.880859 
	C1223.756714,1112.502319 1223.756714,1109.605225 1223.756714,1105.989868 
	C1216.403198,1105.989868 1209.470215,1106.163940 1202.549194,1105.949707 
	C1191.700806,1105.613770 1185.021240,1098.660767 1185.019043,1087.965210 
	C1185.008667,1038.302979 1185.014893,988.640808 1185.015259,938.978577 
	C1185.015381,935.724670 1185.015259,932.470764 1185.015259,929.862061 
	C1186.413330,929.070068 1186.676880,928.795044 1186.950928,928.784241 
	C1192.602539,928.561890 1198.263550,928.502441 1203.906494,928.149109 
	C1233.276489,926.309875 1260.217651,917.852783 1282.587891,897.972717 
	C1320.056274,864.675354 1320.086426,813.184631 1282.686523,779.731384 
	C1261.488159,760.770081 1236.037720,750.970825 1208.035400,750.071289 
	C1172.416504,748.927002 1136.731201,749.843933 1101.074585,749.902344 
	C1100.449219,749.903381 1099.824463,750.284058 1098.776855,750.625122 
	C1098.776855,753.357971 1098.776855,756.222900 1098.776855,760.144348 
	C1104.318115,760.144348 1109.579712,759.997131 1114.830200,760.175049 
	C1125.730347,760.544250 1132.389404,767.375183 1132.390259,778.021606 
	C1132.396240,859.014343 1132.393433,940.007019 1132.393433,1022.999817 
M1503.241699,1039.234741 
	C1502.787720,1041.860229 1502.368774,1044.492310 1501.873657,1047.109985 
	C1499.392578,1060.225830 1496.343750,1073.164185 1489.853149,1085.009277 
	C1483.615234,1096.393433 1474.625732,1104.739746 1461.647461,1106.928955 
	C1425.706299,1112.991455 1401.441284,1100.931274 1390.366821,1068.318237 
	C1384.648071,1051.477295 1382.102295,1033.946533 1382.007446,1016.240479 
	C1381.675293,954.249084 1381.724487,892.255615 1381.661865,830.262939 
	C1381.658203,826.599854 1381.778931,822.920532 1382.128296,819.276184 
	C1383.594482,803.977722 1385.827148,788.852539 1393.319336,775.077454 
	C1402.930908,757.405396 1419.666016,749.610535 1439.387085,753.091736 
	C1456.346558,756.085388 1468.062256,766.476685 1477.895996,779.573364 
	C1488.167480,793.253174 1495.406494,808.618896 1501.933472,824.334656 
	C1504.583862,830.716675 1507.109375,837.150574 1509.837158,843.922119 
	C1513.515625,842.943237 1516.561768,842.132568 1520.083252,841.195435 
	C1512.082397,805.757812 1504.275024,771.177612 1496.497803,736.731018 
	C1492.364868,736.731018 1489.425415,736.731018 1486.407227,736.731018 
	C1484.311890,741.104614 1482.331055,745.239502 1479.849976,750.418213 
	C1474.932861,749.243042 1470.114502,748.419434 1465.507202,746.939026 
	C1424.289673,733.695740 1385.685547,745.825134 1360.124146,780.671570 
	C1354.646118,788.139709 1349.966309,796.327515 1345.876953,804.654236 
	C1334.442383,827.937378 1328.874023,852.933228 1326.049194,878.546875 
	C1322.011108,915.161499 1322.751831,951.752991 1328.040649,988.195740 
	C1332.229614,1017.059448 1339.698975,1044.930786 1355.200317,1070.070923 
	C1373.685669,1100.050659 1400.098022,1118.024170 1435.438843,1121.248291 
	C1474.717773,1124.831909 1495.270264,1112.060669 1506.869873,1080.879272 
	C1516.264282,1055.625244 1518.252075,1029.080566 1520.048706,1002.025146 
	C1515.309326,1002.025146 1511.196289,1002.025146 1507.114868,1002.025146 
	C1505.873413,1014.321228 1504.703369,1025.910889 1503.241699,1039.234741 
z"/>
<path fill="#0D0D0D" opacity="1.000000" stroke="none" 
	d="
M2650.000000,4.000000 
	C2650.000000,498.722748 2650.000000,993.445496 2649.375488,1489.065918 
	C2647.508545,1489.849854 2646.266357,1489.736084 2644.916016,1488.717529 
	C2644.776123,1485.813721 2644.717285,1483.814453 2644.716797,1481.815308 
	C2644.582764,992.907288 2644.453125,503.999268 2644.324463,15.091264 
	C2644.323975,13.091722 2644.443604,11.086426 2644.330811,9.093802 
	C2644.097412,4.967339 2646.627441,4.045147 2650.000000,4.000000 
z"/>
<path fill="#9A9A9B" opacity="1.000000" stroke="none" 
	d="
M2650.000000,3.000000 
	C2646.627441,4.045147 2644.097412,4.967339 2644.330811,9.093802 
	C2644.443604,11.086426 2644.323975,13.091722 2644.324463,15.091264 
	C2644.453125,503.999268 2644.582764,992.907288 2644.716797,1481.815308 
	C2644.717285,1483.814453 2644.776123,1485.813721 2644.619141,1489.642578 
	C2644.341553,1495.461426 2644.175781,1499.450562 2644.176025,1503.439819 
	C2644.176758,1562.998047 2644.218018,1622.556152 2644.206543,1682.114380 
	C2644.202881,1701.409546 2644.072510,1720.704834 2644.000000,1740.000000 
	C2644.000000,1740.000000 2643.000000,1740.000000 2642.500000,1740.000000 
	C2642.005859,1165.093872 2642.011719,590.187805 2642.017334,15.281705 
	C2642.017578,12.025970 2642.017334,8.770237 2642.017334,4.991427 
	C2638.570312,4.725698 2636.002441,4.407415 2633.429443,4.355649 
	C2628.765137,4.261810 2624.098145,4.325580 2619.432129,4.325579 
	C1752.240479,4.325407 885.048706,4.325516 17.857010,4.322716 
	C13.191159,4.322701 8.525309,4.281840 2.929729,4.130027 
	C2.333333,3.333333 2.631839,2.112396 3.005587,2.088912 
	C5.661766,1.922009 8.333333,2.000000 11.000000,2.000000 
	C890.666687,2.000000 1770.333374,2.000000 2650.000000,3.000000 
z"/>
<path fill="#37393E" opacity="1.000000" stroke="none" 
	d="
M2645.000000,1740.000000 
	C2644.072510,1720.704834 2644.202881,1701.409546 2644.206543,1682.114380 
	C2644.218018,1622.556152 2644.176758,1562.998047 2644.176025,1503.439819 
	C2644.175781,1499.450562 2644.341553,1495.461426 2644.727051,1490.547119 
	C2646.266357,1489.736084 2647.508545,1489.849854 2649.375488,1489.981812 
	C2650.000000,1571.666626 2650.002441,1653.333374 2649.987549,1735.000000 
	C2649.987061,1737.656128 2650.985840,1741.255371 2645.000000,1740.000000 
z"/>
<path fill="#E8E8E8" opacity="1.000000" stroke="none" 
	d="
M1132.393433,1021.999756 
	C1132.393433,940.007019 1132.396240,859.014343 1132.390259,778.021606 
	C1132.389404,767.375183 1125.730347,760.544250 1114.830200,760.175049 
	C1109.579712,759.997131 1104.318115,760.144348 1098.776855,760.144348 
	C1098.776855,756.222900 1098.776855,753.357971 1098.776855,750.625122 
	C1099.824463,750.284058 1100.449219,749.903381 1101.074585,749.902344 
	C1136.731201,749.843933 1172.416504,748.927002 1208.035400,750.071289 
	C1236.037720,750.970825 1261.488159,760.770081 1282.686523,779.731384 
	C1320.086426,813.184631 1320.056274,864.675354 1282.587891,897.972717 
	C1260.217651,917.852783 1233.276489,926.309875 1203.906494,928.149109 
	C1198.263550,928.502441 1192.602539,928.561890 1186.950928,928.784241 
	C1186.676880,928.795044 1186.413330,929.070068 1185.015259,929.862061 
	C1185.015259,932.470764 1185.015381,935.724670 1185.015259,938.978577 
	C1185.014893,988.640808 1185.008667,1038.302979 1185.019043,1087.965210 
	C1185.021240,1098.660767 1191.700806,1105.613770 1202.549194,1105.949707 
	C1209.470215,1106.163940 1216.403198,1105.989868 1223.756714,1105.989868 
	C1223.756714,1109.605225 1223.756714,1112.502319 1223.756714,1115.880859 
	C1182.156128,1115.880859 1140.621338,1115.880859 1098.793701,1115.880859 
	C1098.793701,1112.680786 1098.793701,1109.822388 1098.793701,1105.989746 
	C1104.136719,1105.989746 1109.073242,1106.144653 1113.993164,1105.926514 
	C1116.573242,1105.812012 1119.365967,1105.554321 1121.643799,1104.476196 
	C1128.896973,1101.043213 1133.176392,1096.535156 1132.715820,1086.979248 
	C1131.690186,1065.697021 1132.394287,1044.331421 1132.393433,1021.999756 
M1185.005005,904.011597 
	C1185.381714,913.267761 1190.389038,917.631592 1200.278687,917.322327 
	C1225.137207,916.544983 1243.737915,903.734375 1251.791992,880.202637 
	C1260.658081,854.298706 1261.191650,827.885620 1252.258667,801.822205 
	C1244.213623,778.349304 1227.673096,764.517944 1202.893066,760.827026 
	C1190.284302,758.949036 1185.027222,763.367554 1185.018188,776.364685 
	C1184.988770,818.313904 1185.005859,860.263062 1185.005005,904.011597 
z"/>
<path fill="#E5E5E5" opacity="1.000000" stroke="none" 
	d="
M1503.387451,1038.367676 
	C1504.703369,1025.910889 1505.873413,1014.321228 1507.114868,1002.025146 
	C1511.196289,1002.025146 1515.309326,1002.025146 1520.048706,1002.025146 
	C1518.252075,1029.080566 1516.264282,1055.625244 1506.869873,1080.879272 
	C1495.270264,1112.060669 1474.717773,1124.831909 1435.438843,1121.248291 
	C1400.098022,1118.024170 1373.685669,1100.050659 1355.200317,1070.070923 
	C1339.698975,1044.930786 1332.229614,1017.059448 1328.040649,988.195740 
	C1322.751831,951.752991 1322.011108,915.161499 1326.049194,878.546875 
	C1328.874023,852.933228 1334.442383,827.937378 1345.876953,804.654236 
	C1349.966309,796.327515 1354.646118,788.139709 1360.124146,780.671570 
	C1385.685547,745.825134 1424.289673,733.695740 1465.507202,746.939026 
	C1470.114502,748.419434 1474.932861,749.243042 1479.849976,750.418213 
	C1482.331055,745.239502 1484.311890,741.104614 1486.407227,736.731018 
	C1489.425415,736.731018 1492.364868,736.731018 1496.497803,736.731018 
	C1504.275024,771.177612 1512.082397,805.757812 1520.083252,841.195435 
	C1516.561768,842.132568 1513.515625,842.943237 1509.837158,843.922119 
	C1507.109375,837.150574 1504.583862,830.716675 1501.933472,824.334656 
	C1495.406494,808.618896 1488.167480,793.253174 1477.895996,779.573364 
	C1468.062256,766.476685 1456.346558,756.085388 1439.387085,753.091736 
	C1419.666016,749.610535 1402.930908,757.405396 1393.319336,775.077454 
	C1385.827148,788.852539 1383.594482,803.977722 1382.128296,819.276184 
	C1381.778931,822.920532 1381.658203,826.599854 1381.661865,830.262939 
	C1381.724487,892.255615 1381.675293,954.249084 1382.007446,1016.240479 
	C1382.102295,1033.946533 1384.648071,1051.477295 1390.366821,1068.318237 
	C1401.441284,1100.931274 1425.706299,1112.991455 1461.647461,1106.928955 
	C1474.625732,1104.739746 1483.615234,1096.393433 1489.853149,1085.009277 
	C1496.343750,1073.164185 1499.392578,1060.225830 1501.873657,1047.109985 
	C1502.368774,1044.492310 1502.787720,1041.860229 1503.387451,1038.367676 
z"/>
<path fill="#0D0D0D" opacity="1.000000" stroke="none" 
	d="
M1185.005127,903.111938 
	C1185.005859,860.263062 1184.988770,818.313904 1185.018188,776.364685 
	C1185.027222,763.367554 1190.284302,758.949036 1202.893066,760.827026 
	C1227.673096,764.517944 1244.213623,778.349304 1252.258667,801.822205 
	C1261.191650,827.885620 1260.658081,854.298706 1251.791992,880.202637 
	C1243.737915,903.734375 1225.137207,916.544983 1200.278687,917.322327 
	C1190.389038,917.631592 1185.381714,913.267761 1185.005127,903.111938 
z"/>
</svg>